<svg id="Layer_3" enable-background="new 0 0 64 64" height="512" viewBox="0 0 64 64" width="512" xmlns="http://www.w3.org/2000/svg"><path d="m3 35c0-3.309 2.691-6 5.961-6.001.313.028.652-.101.858-.334.19-.215.278-.502.242-.787-.035-.288-.061-.58-.061-.878 0-3.86 3.14-7 7-7 1.329 0 2.628.381 3.757 1.101.275.175.621.206.923.08s.523-.393.592-.713c1.18-5.486 6.112-9.468 11.728-9.468 6.617 0 12 5.383 12 12l-.018.332c-.01.363.177.703.489.888s.7.187 1.014.004c1.375-.801 2.937-1.224 4.515-1.224 4.962 0 9 4.038 9 9 0 1.541-.388 3.019-1.12 4.342-2-2.058-4.791-3.342-7.88-3.342-1.388 0-2.764.267-4.053.78-.619-7.15-6.638-12.78-13.947-12.78-6.112 0-11.528 4.042-13.346 9.78-1.148-.513-2.39-.78-3.654-.78-4.962 0-9 4.038-9 9v.062c-.903.113-1.755.383-2.539.772-1.546-1.129-2.461-2.894-2.461-4.834zm49 18h-43c-3.309 0-6-2.691-6-6s2.691-6 5.961-6.001c.313.028.652-.101.858-.334.19-.215.278-.502.242-.787-.035-.288-.061-.58-.061-.878 0-3.86 3.14-7 7-7 1.329 0 2.628.381 3.757 1.101.275.175.621.206.923.08s.523-.393.592-.713c1.18-5.486 6.112-9.468 11.728-9.468 6.617 0 12 5.383 12 12l-.018.332c-.01.363.177.703.489.888s.7.187 1.014.004c1.375-.801 2.937-1.224 4.515-1.224 4.962 0 9 4.038 9 9s-4.038 9-9 9z"/></svg>